<?xml version="1.0" encoding="utf-8"?>
<!-- Generator: Adobe Illustrator 16.0.0, SVG Export Plug-In . SVG Version: 6.00 Build 0)  -->
<!DOCTYPE svg PUBLIC "-//W3C//DTD SVG 1.1//EN" "http://www.w3.org/Graphics/SVG/1.1/DTD/svg11.dtd">
<svg version="1.1" id="Layer_1" xmlns="http://www.w3.org/2000/svg" xmlns:xlink="http://www.w3.org/1999/xlink" x="0px" y="0px"
	 width="278.1px" height="656.5px" viewBox="0 0 278.1 656.5" enable-background="new 0 0 278.1 656.5" xml:space="preserve">
<g>
	<ellipse fill="#FFFFFF" cx="138.686" cy="72.38" rx="63.368" ry="63.368"/>
	<path fill="#FFFFFF" d="M56.87,383.632v-99.59c-5.64-18.494-7.758-32.932-7.7-43.713c0.032-12.398,2.531-19.909,5.338-24.932
		c2.282-4,5.025-6.814,7.995-8.924v44.462v3.501v46.158v15.132v53.356v16.198v15.671v5.605v136.161
		c25.171-19.581,43.919-44.356,56.889-75.101c5.975-14.28,10.026-27.226,12.771-39.242v-16.185v-14.902v-6.439h10.794
		c-1.034,19.098-4.085,37.933-10.794,58.581c-2.138,6.584-4.64,13.352-7.577,20.373c-12.306,29.175-31.048,57.024-62.083,80.025
		c-7.034,5.215-14.691,10.179-23.056,14.854c-17.684,9.81-24.078,32.102-14.261,49.789c6.69,12.061,19.186,18.866,32.062,18.866
		c3.381,0,6.78-0.526,10.115-1.49c2.593-0.752,5.152-1.747,7.612-3.112c22.17-12.231,41.093-26.567,57.192-42.149
		c28.053-27.156,47.463-58.134,60.038-88.626c17.965-43.29,23.337-80.988,24.264-113.005c0.104-3.556,0.166-7.06,0.172-10.477
		c-0.006-14.536-0.834-26.779-1.752-35.952v-37.958V254.43v-47.96c3.208,2.307,6.064,5.234,8.513,9.899
		c2.569,4.998,4.792,12.342,4.814,23.959c0.06,10.775-2.062,25.205-7.696,43.688v54.249c1.158,11.589,1.744,23.779,1.749,36.218
		c-0.002,2.803-0.042,5.565-0.101,8.311c3.812-2.074,7.082-5.23,9.23-9.373c30.104-58.17,41.774-100.185,41.889-133.094
		c0.032-18.691-4.058-34.538-11.143-47.06c-10.641-18.962-27.138-28.799-39.809-33.27c-12.557-4.479-22.086-4.671-24.041-4.716
		c-1.662-0.406-3.394-0.646-5.182-0.646H84.273c-1.795,0-3.523,0.239-5.19,0.648c-2.575,0.129-18.975,0.214-37.611,11.11
		c-9.384,5.55-19.193,14.319-26.23,26.87c-7.085,12.528-11.175,28.374-11.142,47.065c0.116,32.901,11.778,74.921,41.894,133.1
		C48.445,378.155,52.35,381.632,56.87,383.632z"/>
	<path fill="#FFFFFF" d="M70.807,636.712C77.197,644.223,86.704,649,97.336,649c19.229,0,34.828-15.593,34.828-34.828v-19.778
		c-15.167,14.101-33.148,27.519-54.47,39.278C75.492,634.892,73.182,635.903,70.807,636.712z"/>
</g>
</svg>
