<?xml version="1.0" encoding="utf-8"?>
<!-- Generator: Adobe Illustrator 16.0.0, SVG Export Plug-In . SVG Version: 6.00 Build 0)  -->
<!DOCTYPE svg PUBLIC "-//W3C//DTD SVG 1.1//EN" "http://www.w3.org/Graphics/SVG/1.1/DTD/svg11.dtd">
<svg version="1.1" id="Layer_1" xmlns="http://www.w3.org/2000/svg" xmlns:xlink="http://www.w3.org/1999/xlink" x="0px" y="0px"
	 width="628px" height="640.003px" viewBox="0 0 628 640.003" enable-background="new 0 0 628 640.003" xml:space="preserve">
<g>
	<path fill="#FFFFFF" d="M46.045,110.205c24.581,32.842,55.851,51.359,80.652,61.726c7.851,3.271,15.085,5.746,21.359,7.614
		l-25.174,170.906L23.733,564.906c-8.113,17.553-0.462,38.354,17.085,46.463c17.549,8.115,38.354,0.469,46.467-17.082
		l97.073-209.969l19.225,2.834v217.846c0,19.336,15.671,35.006,35.007,35.006c19.33,0,35.006-15.67,35.006-35.006V377.484
		c0.168-0.678,0.31-1.369,0.412-2.074l26.877-182.44c0.592-0.797,1.499-1.981,2.703-3.463c1.729-2.12,4.084-4.848,7.01-7.915
		c-2.474-2.267-5.534-4.91-9.278-7.893c-1.128-0.897-2.297-1.817-3.55-2.774c-2.14-1.638-4.304-3.17-6.479-4.642
		c-3.08-2.083-6.189-4.019-9.339-5.768c-5.353,3.764-11.244,6.768-17.549,8.894c-2.141,0.721-4.325,1.345-6.551,1.865
		c-5.175,1.207-10.465,1.819-15.729,1.819c-18.84,0-36.069-7.53-48.638-20.027c-0.011,0.003-0.024,0.008-0.035,0.011
		c-7.402,2.424-14.93,5.556-22.646,9.434c-3.822,1.931-7.923,2.907-12.175,2.907c-2.88,0-5.659-0.488-8.298-1.331
		c-6.819-2.178-12.595-6.96-15.936-13.596c-3.263-6.464-3.808-13.815-1.54-20.695c0.261-0.789,0.563-1.556,0.89-2.312
		c-4.58-2.259-9.287-4.819-14.017-7.785c-14.058-8.78-28.246-20.716-40.09-37.037c-11.83-16.353-21.492-37.121-26.237-64.629
		C51.376,6.224,40.163-1.71,28.355,0.316C16.546,2.344,8.618,13.554,10.646,25.365C16.59,60.231,29.68,88.366,46.045,110.205z"/>
	<path fill="#FFFFFF" d="M493.925,150.491c-3.341,6.635-9.118,11.421-15.938,13.598c-2.642,0.843-5.418,1.329-8.295,1.329
		c-4.252,0-8.354-0.976-12.175-2.907c-7.718-3.877-15.244-7.009-22.646-9.433c-0.011-0.003-0.021-0.008-0.033-0.011
		c-12.566,12.498-29.794,20.028-48.634,20.028c-5.266,0-10.562-0.613-15.731-1.82c-2.228-0.518-4.414-1.142-6.555-1.865
		c-6.305-2.129-12.195-5.13-17.552-8.894c-0.684-0.48-1.351-0.979-2.018-1.483c-0.896-0.681-1.771-1.383-2.637-2.107
		c-0.673-0.567-1.337-1.145-1.986-1.738c-4.688-4.26-8.826-9.184-12.266-14.71c-2.564-4.125-4.655-8.449-6.285-12.907
		c-2.238-1.573-4.591-3.124-7.012-4.656c-1.546-0.979-3.121-1.944-4.743-2.896c-0.611,2.551-1.362,5.073-2.271,7.554
		c-1.63,4.458-3.718,8.783-6.283,12.904c-3.44,5.526-7.578,10.45-12.271,14.71c-0.652,0.594-1.314,1.171-1.989,1.738
		c0.879,0.51,1.731,1.03,2.587,1.554c4.246,2.598,8.216,5.336,11.874,8.134c5.016,3.84,9.39,7.744,13.094,11.37
		c1.271,1.245,2.454,2.449,3.562,3.609c2.926,3.067,5.28,5.795,7.012,7.915c1.207,1.48,2.115,2.663,2.706,3.46l26.874,182.441
		c0.104,0.711,0.247,1.404,0.415,2.086v227.5c0,19.336,15.676,35.006,35.006,35.006c19.333,0,35.006-15.67,35.006-35.006V387.148
		l19.228-2.832l97.076,209.967c8.113,17.553,28.919,25.195,46.469,17.084c17.546-8.111,25.194-28.914,17.082-46.463L505.44,350.431
		l-25.168-170.887c12.905-3.837,29.873-10.271,47.828-20.928c18.399-10.968,37.832-26.535,54.183-48.417
		c16.361-21.841,29.447-49.974,35.401-84.841c2.024-11.809-5.908-23.021-17.718-25.041c-11.809-2.025-23.021,5.903-25.047,17.712
		c-4.896,28.396-15.023,49.61-27.387,66.199c-15.6,20.898-35.241,34.507-52.951,43.247c0.326,0.756,0.63,1.526,0.891,2.318
		C497.729,136.675,497.187,144.026,493.925,150.491z"/>
	<path fill="#FFFFFF" d="M442.047,144.628c-0.272,0.377-0.518,0.778-0.8,1.149c-0.762,1.009-1.583,1.963-2.396,2.926
		c6.728,2.321,13.753,5.271,21.101,8.964c5.513,2.779,11.642,2.967,17.029,1.047c5.069-1.806,9.487-5.475,12.102-10.662
		c2.99-5.93,2.988-12.576,0.58-18.243c-1.937-4.558-5.423-8.484-10.19-10.884c-8.262-4.17-16.391-7.63-24.373-10.48
		c-0.244,3.712-0.775,7.451-1.646,11.19C451.294,128.904,447.332,137.321,442.047,144.628z"/>
	<path fill="#FFFFFF" d="M139.236,148.05c2.609,5.187,7.027,8.856,12.099,10.662c5.388,1.917,11.52,1.733,17.028-1.046
		c7.349-3.693,14.374-6.641,21.104-8.964c-0.811-0.96-1.629-1.909-2.389-2.915c-0.284-0.374-0.531-0.778-0.808-1.161
		c-5.285-7.305-9.247-15.724-11.405-24.995c-0.87-3.739-1.404-7.478-1.648-11.19c-7.981,2.85-16.113,6.31-24.377,10.48
		c-4.767,2.403-8.251,6.329-10.188,10.887C136.25,135.477,136.248,142.123,139.236,148.05z"/>
	<path fill="#FFFFFF" d="M325.744,124.183c1.177,3.503,2.654,6.885,4.408,10.117c2.739,5.049,6.152,9.716,10.148,13.87
		c2.042,2.121,4.235,4.108,6.57,5.938c1.605,1.258,3.275,2.443,5.009,3.549c0.11,0.07,0.223,0.136,0.33,0.206
		c1.625,1.022,3.295,1.977,5.022,2.853c4.495,2.286,9.333,4.083,14.469,5.279c21.071,4.908,42.124-1.277,57.075-14.727
		c1.537-1.385,3.012-2.847,4.417-4.382c0.331-0.363,0.661-0.727,0.983-1.095c6.627-7.601,11.552-16.879,13.997-27.384
		c0.919-3.94,1.43-7.88,1.598-11.779c0.084-1.92,0.075-3.826-0.015-5.719c-1.316-27.736-20.792-52.371-49.168-58.976
		c-34.261-7.978-68.502,13.33-76.481,47.587c-1.735,7.454-2.082,14.908-1.214,22.088c0.228,1.893,0.553,3.766,0.945,5.616
		C324.342,119.582,324.977,121.905,325.744,124.183z"/>
	<path fill="#FFFFFF" d="M180.147,118.402c2.445,10.507,7.37,19.786,13.997,27.384c0.321,0.372,0.652,0.735,0.983,1.095
		c1.404,1.535,2.877,2.997,4.417,4.382c14.951,13.449,36.004,19.634,57.075,14.726c5.136-1.196,9.971-2.994,14.469-5.279
		c1.729-0.878,3.397-1.833,5.021-2.853c0.111-0.068,0.222-0.136,0.33-0.206c1.735-1.106,3.402-2.292,5.009-3.549
		c2.335-1.833,4.528-3.818,6.57-5.938c3.995-4.151,7.409-8.818,10.146-13.864c1.754-3.235,3.234-6.619,4.414-10.122
		c0.765-2.275,1.399-4.602,1.903-6.963c0.396-1.852,0.719-3.723,0.945-5.616c0.868-7.18,0.521-14.634-1.215-22.088
		c-7.975-34.258-42.219-55.565-76.479-47.587c-28.377,6.608-47.852,31.242-49.169,58.976c-0.089,1.893-0.099,3.801-0.017,5.718
		C178.716,110.525,179.231,114.462,180.147,118.402z"/>
</g>
</svg>
