<?xml version="1.0" encoding="utf-8"?>
<!-- Generator: Adobe Illustrator 16.0.0, SVG Export Plug-In . SVG Version: 6.00 Build 0)  -->
<!DOCTYPE svg PUBLIC "-//W3C//DTD SVG 1.1//EN" "http://www.w3.org/Graphics/SVG/1.1/DTD/svg11.dtd">
<svg version="1.1" id="Layer_1" xmlns="http://www.w3.org/2000/svg" xmlns:xlink="http://www.w3.org/1999/xlink" x="0px" y="0px"
	 width="359.98px" height="546px" viewBox="0 0 359.98 546" enable-background="new 0 0 359.98 546" xml:space="preserve">
<path fill="#FFFFFF" d="M275.346,59.44c0,30.08-24.319,53.76-53.76,53.76c-29.439,0-53.761-24.32-53.761-53.76
	s24.319-53.76,53.761-53.76C251.026,5.68,275.346,30,275.346,59.44z M138.386,128.56c3.2-10.88-3.84-25.6-17.92-26.24
	c-7.681,0-23.681-0.64-35.84-0.64c-12.16,0-23.04,1.92-26.24,12.8l-51.2,141.44c-3.199,10.88,2.561,22.4,13.44,25.6l39.04,16
	c10.88,3.842,23.04-1.92,26.239-12.8L138.386,128.56z M346.386,252.721l-5.12-2.561v-69.12h-19.199v59.521l-42.24-19.84
	l-52.479-72.96c-8.319-16.64-23.68-29.44-48.64-25.6c-23.04,3.2-31.36,28.8-37.12,56.96L126.226,254l0,0l0,0l-12.8,58.24
	c-0.641,2.56-0.641,4.479-0.641,6.398L99.346,385.2l-78.72,99.2c-8.96,10.88-7.04,27.52,4.479,35.84
	c4.479,3.84,9.601,5.12,15.359,5.76c7.68,0,15.359-3.2,20.479-9.6l81.92-104.32c2.561-3.2,3.841-6.4,5.12-10.24l12.801-58.88
	l49.279,65.28l5.119,102.398c0.641,13.44,11.521,24.32,24.961,24.32c0.641,0,1.279,0,1.92,0c14.08-0.64,24.96-12.8,24.319-26.88
	l-5.76-110.72c0-5.12-1.92-10.24-5.12-14.08l-46.72-62.08l21.76-103.04l20.479,28.8c1.92,2.561,4.479,4.48,7.04,6.4l63.359,30.081
	v243.84h19.2V288.56c5.76-0.64,11.52-4.479,14.08-10.88C359.826,268.72,355.986,257.2,346.386,252.721z"/>
</svg>
