<?xml version="1.0" encoding="iso-8859-1"?>
<!-- Generator: Adobe Illustrator 16.0.0, SVG Export Plug-In . SVG Version: 6.00 Build 0)  -->
<!DOCTYPE svg PUBLIC "-//W3C//DTD SVG 1.1//EN" "http://www.w3.org/Graphics/SVG/1.1/DTD/svg11.dtd">
<svg version="1.1" id="Capa_1" xmlns="http://www.w3.org/2000/svg" xmlns:xlink="http://www.w3.org/1999/xlink" x="0px" y="0px"
	 width="764.649px" height="764.649px" viewBox="0 0 764.649 764.649" style="enable-background:new 0 0 764.649 764.649;"
	 xml:space="preserve">
<g>
	<g id="Shape_388">
		<g>
			<path d="M293.074,293.143h-51.007c-7.042,0-12.746,5.677-12.746,12.733c0,7.055,5.703,12.758,12.746,12.758h38.25v38.236
				c0,7.03,5.703,12.732,12.745,12.732s12.746-5.703,12.746-12.732v-50.982C305.819,298.82,300.117,293.143,293.074,293.143z
				 M293.074,407.827h-51.007c-7.042,0-12.746,5.703-12.746,12.758c0,7.03,5.703,12.733,12.746,12.733h38.25v38.236
				c0,7.055,5.703,12.758,12.745,12.758s12.746-5.703,12.746-12.758v-50.97C305.819,413.517,300.117,407.827,293.074,407.827z
				 M293.074,522.498h-51.007c-7.042,0-12.746,5.741-12.746,12.758c0,7.03,5.703,12.746,12.746,12.746h38.25v38.236
				c0,7.004,5.703,12.745,12.745,12.745s12.746-5.741,12.746-12.745v-50.982C305.819,528.239,300.117,522.498,293.074,522.498z
				 M407.821,407.827h-50.995c-7.042,0-12.745,5.703-12.745,12.758c0,7.03,5.703,12.733,12.745,12.733h38.25v38.236
				c0,7.055,5.703,12.758,12.745,12.758c7.043,0,12.746-5.703,12.746-12.758v-50.97
				C420.567,413.517,414.864,407.827,407.821,407.827z M685.53,300.849L389.628,3.033c-3.98-4.044-10.449-4.044-14.429,0
				L79.284,300.849c-3.98,4.032-3.917,10.436,0,14.506c2.003,2.118,4.605,3.177,7.208,3.177v0.025l66.33,0.063v433.271
				c0,7.029,5.715,12.758,12.745,12.758h433.5c3.521,0,6.711-1.441,9.021-3.738c2.309-2.31,3.738-5.499,3.738-9.007V318.634
				l66.802-0.064c2.666,0.064,5.192-0.995,6.902-3.202C689,310.902,689.511,304.868,685.53,300.849z M599.067,293.143
				c-7.042,0-12.745,5.677-12.745,12.733v433.27H420.567v-203.89c0-7.004-5.703-12.758-12.746-12.758h-50.995
				c-7.042,0-12.745,5.741-12.745,12.758c0,7.03,5.703,12.746,12.745,12.746h38.25v191.144h-216.75v-433.27
				c0-1.761-0.357-3.445-0.995-4.938c-1.939-4.58-6.468-7.795-11.75-7.795h-45.037L382.318,25.539l260.983,267.604H599.067z
				 M471.574,318.621h38.249v38.237c0,7.03,5.703,12.732,12.746,12.732c7.042,0,12.745-5.703,12.745-12.732v-50.982
				c0-7.056-5.703-12.733-12.745-12.733h-50.995c-7.042,0-12.745,5.677-12.745,12.733
				C458.829,312.931,464.532,318.621,471.574,318.621z M471.574,548.002h38.249v38.236c0,7.004,5.703,12.745,12.746,12.745
				c7.042,0,12.745-5.741,12.745-12.745v-50.982c0-7.004-5.703-12.758-12.745-12.758h-50.995c-7.042,0-12.745,5.741-12.745,12.758
				C458.816,542.286,464.532,548.002,471.574,548.002z M344.069,305.875c0,7.055,5.703,12.758,12.745,12.758h38.25v38.236
				c0,7.03,5.703,12.732,12.745,12.732c7.043,0,12.746-5.703,12.746-12.732v-50.982c0-7.055-5.703-12.733-12.746-12.733h-50.995
				C349.784,293.143,344.069,298.82,344.069,305.875z M471.574,433.305h38.249v38.237c0,7.055,5.703,12.758,12.746,12.758
				c7.042,0,12.745-5.703,12.745-12.758v-50.97c0-7.055-5.703-12.758-12.745-12.758h-50.995c-7.042,0-12.745,5.703-12.745,12.758
				C458.816,427.603,464.532,433.305,471.574,433.305z"/>
		</g>
	</g>
</g>
<g>
</g>
<g>
</g>
<g>
</g>
<g>
</g>
<g>
</g>
<g>
</g>
<g>
</g>
<g>
</g>
<g>
</g>
<g>
</g>
<g>
</g>
<g>
</g>
<g>
</g>
<g>
</g>
<g>
</g>
</svg>
