<?xml version="1.0" encoding="utf-8"?>
<!-- Generator: Adobe Illustrator 16.0.0, SVG Export Plug-In . SVG Version: 6.00 Build 0)  -->
<!DOCTYPE svg PUBLIC "-//W3C//DTD SVG 1.1//EN" "http://www.w3.org/Graphics/SVG/1.1/DTD/svg11.dtd">
<svg version="1.1" id="Capa_1" xmlns="http://www.w3.org/2000/svg" xmlns:xlink="http://www.w3.org/1999/xlink" x="0px" y="0px"
	 width="764.649px" height="590px" viewBox="0 56.825 764.649 590" enable-background="new 0 56.825 764.649 590"
	 xml:space="preserve">
<g>
	<g id="Shape_388">
		<g>
			<path fill="#125488" d="M312.208,284.349h-39.037c-5.39,0-9.755,4.345-9.755,9.745c0,5.399,4.365,9.764,9.755,9.764h29.273
				v29.263c0,5.38,4.365,9.744,9.754,9.744s9.755-4.365,9.755-9.744v-39.018C321.961,288.694,317.598,284.349,312.208,284.349z
				 M312.208,372.119h-39.037c-5.39,0-9.755,4.365-9.755,9.764c0,5.381,4.365,9.746,9.755,9.746h29.273v29.262
				c0,5.4,4.365,9.764,9.754,9.764s9.755-4.363,9.755-9.764v-39.008C321.961,376.474,317.598,372.119,312.208,372.119z
				 M312.208,459.88h-39.037c-5.39,0-9.755,4.394-9.755,9.764c0,5.38,4.365,9.755,9.755,9.755h29.273v29.264
				c0,5.36,4.365,9.753,9.754,9.753s9.755-4.393,9.755-9.753v-39.019C321.961,464.274,317.598,459.88,312.208,459.88z
				 M400.026,372.119h-39.027c-5.389,0-9.754,4.365-9.754,9.764c0,5.381,4.365,9.746,9.754,9.746h29.273v29.262
				c0,5.4,4.365,9.764,9.754,9.764c5.391,0,9.755-4.363,9.755-9.764v-39.008C409.781,376.474,405.417,372.119,400.026,372.119z
				 M612.563,290.247L386.102,62.321c-3.045-3.095-7.997-3.095-11.042,0L148.589,290.247c-3.046,3.085-2.997,7.987,0,11.102
				c1.533,1.621,3.524,2.432,5.517,2.432v0.019l50.764,0.048V635.44c0,5.38,4.375,9.764,9.754,9.764h331.768
				c2.695,0,5.136-1.103,6.904-2.861c1.767-1.768,2.861-4.207,2.861-6.892V303.858l51.124-0.049c2.04,0.049,3.975-0.761,5.282-2.45
				C615.219,297.94,615.61,293.323,612.563,290.247z M546.391,284.349c-5.389,0-9.754,4.345-9.754,9.745v331.592H409.781V469.644
				c0-5.359-4.364-9.764-9.755-9.764h-39.027c-5.389,0-9.754,4.394-9.754,9.764c0,5.38,4.365,9.755,9.754,9.755h29.273v146.286
				H224.388V294.094c0-1.348-0.273-2.636-0.761-3.779c-1.484-3.505-4.951-5.966-8.993-5.966h-34.468L380.508,79.546l199.736,204.803
				H546.391z M448.819,303.848h29.271v29.264c0,5.38,4.364,9.744,9.755,9.744s9.755-4.364,9.755-9.744v-39.018
				c0-5.4-4.364-9.745-9.755-9.745h-39.026c-5.391,0-9.755,4.345-9.755,9.745C439.064,299.494,443.428,303.848,448.819,303.848z
				 M448.819,479.399h29.271v29.264c0,5.36,4.364,9.753,9.755,9.753s9.755-4.393,9.755-9.753v-39.019
				c0-5.359-4.364-9.764-9.755-9.764h-39.026c-5.391,0-9.755,4.394-9.755,9.764C439.054,475.024,443.428,479.399,448.819,479.399z
				 M351.236,294.093c0,5.399,4.364,9.764,9.754,9.764h29.273v29.263c0,5.38,4.364,9.744,9.754,9.744s9.755-4.365,9.755-9.744
				v-39.018c0-5.399-4.365-9.745-9.755-9.745H360.99C355.609,284.349,351.236,288.694,351.236,294.093z M448.819,391.619h29.271
				v29.263c0,5.4,4.364,9.765,9.755,9.765s9.755-4.364,9.755-9.765v-39.007c0-5.401-4.364-9.764-9.755-9.764h-39.026
				c-5.391,0-9.755,4.363-9.755,9.764C439.054,387.254,443.428,391.619,448.819,391.619z"/>
		</g>
	</g>
</g>
</svg>
