<?xml version="1.0" encoding="utf-8"?>
<!-- Generator: Adobe Illustrator 16.0.0, SVG Export Plug-In . SVG Version: 6.00 Build 0)  -->
<!DOCTYPE svg PUBLIC "-//W3C//DTD SVG 1.1//EN" "http://www.w3.org/Graphics/SVG/1.1/DTD/svg11.dtd">
<svg version="1.1" id="Layer_1" xmlns="http://www.w3.org/2000/svg" xmlns:xlink="http://www.w3.org/1999/xlink" x="0px" y="0px"
	 width="551.183px" height="643.008px" viewBox="0 0 551.183 643.008" enable-background="new 0 0 551.183 643.008"
	 xml:space="preserve">
<path fill="#FFFFFF" d="M120.593,10.408c29.92-17.837,68.717-8.051,86.572,21.908c17.855,29.952,7.98,68.66-21.951,86.497
	c-29.896,17.831-68.598,8.071-86.453-21.869C80.905,66.991,90.696,28.226,120.593,10.408L120.593,10.408z"/>
<path fill="#FFFFFF" d="M396.033,86.281c14.873-0.006,26.949,12.039,26.963,26.912l0.059,99.387
	c0.217,14.88-11.66,27.117-26.535,27.334c-14.879,0.218-27.117-11.661-27.334-26.541c-0.014-0.256-0.014-0.499-0.014-0.755
	l-0.045-72.436l-72.615,0.025l-13.062,30.708l-0.627,1.446l87.994,145.346c2.496,4.115,3.834,8.812,3.885,13.619l1.723,143.105
	h142.619c14.875-0.198,27.104,11.693,27.322,26.566c0.211,14.881-11.682,27.111-26.561,27.313c-0.256,0.015-0.512,0.015-0.756,0
	H349.804c-14.752,0-26.758-11.858-26.932-26.604l-1.512-126.287c-0.863-0.295-1.715-0.634-2.533-1.012
	c-2.176,4.142-5.389,7.647-9.324,10.164l-117.774,75.142v154.474c0.211,14.881-11.682,27.104-26.561,27.315
	c-14.875,0.211-27.105-11.682-27.316-26.549c0-0.256,0-0.512,0-0.762V444.954c0-9.203,4.691-17.769,12.441-22.715l108.104-68.974
	l-74.381-123.598l-2.252-0.205l-25.16-2.214l0.045,87.905c0.006,14.874-12.039,26.95-26.924,26.957c0,0,0,0-0.008,0l-99.367,0.058
	c-14.879,0.224-27.123-11.661-27.348-26.541s11.661-27.117,26.549-27.341c0.242,0,0.498,0,0.754,0l72.449-0.032l-0.045-90.414
	c-0.008-9.703,5.209-18.656,13.645-23.444l149.064-84.538c4.039-2.298,8.619-3.507,13.274-3.514L396.033,86.281z"/>
</svg>
